<?xml version="1.0" encoding="UTF-8" standalone="no"?>
<!-- Created with Inkscape (http://www.inkscape.org/) -->
<svg id="svg4758" xmlns:rdf="http://www.w3.org/1999/02/22-rdf-syntax-ns#" xmlns="http://www.w3.org/2000/svg" height="240mm" width="239.97mm" version="1.1" xmlns:cc="http://creativecommons.org/ns#" xmlns:dc="http://purl.org/dc/elements/1.1/" viewBox="0 0 850.27297 850.38018">
 <g id="layer1" fill="none" transform="translate(267.99 -107.17)">
  <rect id="rect4156" height="651.72" width="651.72" stroke="#f40000" y="206" x="-169.4"/>
  <rect id="rect4158" height="14.858" width="77.657" stroke="#ec0000" y="360.3" x="-43.548" stroke-width="2.3032"/>
  <g stroke="#f00" stroke-width="1.044">
   <path id="path3372" d="m-267.34 716.09v4.062h5.5391v5.5391h4.062v-5.5391h5.3544v-4.062h-5.5391v-5.5391h-3.8774v5.7237h-5.5391z"/>
   <path id="path3372-5" d="m-267.47 341.69v4.062h5.5391v5.5391h4.062v-5.5391h5.3544v-4.062h-5.5391v-5.5391h-3.8774v5.7237h-5.5391z"/>
   <path id="path3372-5-0" d="m-37.535 113.41v4.062h5.5391v5.539h4.062v-5.539h5.3544v-4.062h-5.5391v-5.5391h-3.8774v5.7238h-5.5391z"/>
   <path id="path3372-5-0-0" d="m335.93 113.23v4.062h5.5391v5.539h4.062v-5.539h5.3544v-4.062h-5.5391v-5.5391h-3.8774v5.7238h-5.5391z"/>
   <path id="path3372-5-0-0-6" d="m566.74 341.36v4.062h5.5391v5.5391h4.062v-5.5391h5.3544v-4.062h-5.5391v-5.5391h-3.8774v5.7238h-5.5391z"/>
   <path id="path3372-5-0-0-6-3" d="m566.8 715.27v4.062h5.5391v5.5391h4.062v-5.5391h5.3544v-4.062h-5.5391v-5.5391h-3.8774v5.7238h-5.5391z"/>
   <path id="path3372-5-0-0-6-3-3" d="m337.56 947.25v4.062h5.5391v5.5391h4.062v-5.5391h5.3544v-4.062h-5.5391v-5.5391h-3.8774v5.7238h-5.5391z"/>
   <path id="path3372-5-0-0-6-3-3-0" d="m-35.888 947.43v4.062h5.5391v5.5391h4.062v-5.5391h5.3544v-4.062h-5.5391v-5.5391h-3.8774v5.7238h-5.5391z"/>
  </g>
  <g>
   <path id="path4279" d="m339.55 377.44v-60.53h-2.4959v61.53h27.682v-85.792h-54.23l-0.2269 86.292h1.5883l0.2269-62.781" stroke="#000" stroke-width=".95292px"/>
   <path id="path4179-4-6" d="m202.8 253.52h195.73" stroke="#d40000" stroke-width="2.451px"/>
   <path id="path4181-9-3" d="m301.98 253.24v167.34" stroke="#d70000" stroke-width="2.4801px"/>
   <path id="path4204-3-0" d="m302.42 288.41h-72.184" stroke="#df0000" stroke-width="2.461px"/>
   <path id="path4181-7-0-2" d="m230.49 288.15v132.33" stroke="#d70000" stroke-width="2.2055px"/>
   <path id="path4225-1-0" d="m230.28 386.01h17.441m38.481 0h15.914" stroke="#f30000" stroke-width="2.4847px"/>
   <path id="path4183-7-3-8" d="m266.84 279.89v8.3678" stroke="#ec0000" stroke-width="2.4808px"/>
   <path id="path4183-7-3-3-5" d="m266.8 253.39v8.6972" stroke="#ec0000" stroke-width="2.5291px"/>
   <path id="path4279-0" d="m339.55 687.43v60.53h-2.496v-61.53h27.682v85.792h-54.23l-0.2269-86.292h1.5883l0.2269 62.781" stroke="#000" stroke-width=".95292px"/>
   <path id="path4179-4-6-5" d="m202.8 811.35h195.73" stroke="#d40000" stroke-width="2.451px"/>
   <path id="path4181-9-3-9" d="m301.98 811.63v-167.34" stroke="#d70000" stroke-width="2.4801px"/>
   <path id="path4204-3-0-7" d="m302.42 776.46h-72.184" stroke="#df0000" stroke-width="2.461px"/>
   <path id="path4181-7-0-2-7" d="m230.49 776.72v-132.33" stroke="#d70000" stroke-width="2.2055px"/>
   <path id="path4225-1-0-2" d="m230.28 678.86h17.441m38.482 0h15.914" stroke="#f30000" stroke-width="2.4847px"/>
  </g>
  <g stroke="#ec0000">
   <path id="path4183-7-3-8-0" d="m266.84 784.98v-8.3678" stroke-width="2.4808px"/>
   <path id="path4183-7-3-3-5-8" d="m266.8 811.48v-8.6972" stroke-width="2.5291px"/>
   <rect id="rect4158-1" height="14.858" width="77.657" y="686.3" x="-43.548" stroke-width="2.3032"/>
  </g>
 </g>
</svg>
