<?xml version="1.0" encoding="UTF-8" standalone="no"?>
<!-- Created with Inkscape (http://www.inkscape.org/) -->
<svg id="svg3456" xmlns:rdf="http://www.w3.org/1999/02/22-rdf-syntax-ns#" xmlns="http://www.w3.org/2000/svg" height="240mm" width="239.97mm" version="1.1" xmlns:cc="http://creativecommons.org/ns#" xmlns:dc="http://purl.org/dc/elements/1.1/" viewBox="0 0 850.27297 850.38018">
 <g id="layer1" transform="translate(213.71 121.4)" stroke="#f00" fill="none">
  <g stroke-width="1.044">
   <path id="path3372" d="m-213.06 487.52v4.062h5.5391v5.5391h4.062v-5.5391h5.3544v-4.062h-5.5391v-5.5391h-3.8774v5.7237h-5.5391z"/>
   <path id="path3372-5" d="m-213.19 113.12v4.062h5.5391v5.5391h4.062v-5.5391h5.3544v-4.062h-5.5391v-5.5391h-3.8774v5.7237h-5.5391z"/>
   <path id="path3372-5-0" d="m16.751-115.16v4.062h5.5391v5.539h4.062v-5.539h5.3544v-4.062h-5.5391v-5.5391h-3.8774v5.7238h-5.5391z"/>
   <path id="path3372-5-0-0" d="m390.21-115.34v4.062h5.5391v5.539h4.062v-5.539h5.3544v-4.062h-5.5391v-5.5391h-3.8774v5.7238h-5.5391z"/>
   <path id="path3372-5-0-0-6" d="m621.02 112.79v4.062h5.5391v5.5391h4.062v-5.5391h5.3544v-4.062h-5.5391v-5.5391h-3.8774v5.7238h-5.5391z"/>
   <path id="path3372-5-0-0-6-3" d="m621.09 486.7v4.062h5.5391v5.5391h4.062v-5.5391h5.3544v-4.062h-5.5391v-5.5391h-3.8774v5.7238h-5.5391z"/>
   <path id="path3372-5-0-0-6-3-3" d="m391.84 718.68v4.062h5.5391v5.5391h4.062v-5.5391h5.3544v-4.062h-5.5391v-5.5391h-3.8774v5.7238h-5.5391z"/>
   <path id="path3372-5-0-0-6-3-3-0" d="m18.398 718.86v4.062h5.5391v5.5391h4.062v-5.5391h5.3544v-4.062h-5.5391v-5.5391h-3.8774v5.7238h-5.5391z"/>
  </g>
  <g stroke-width="1.0809">
   <rect id="rect3522" style="color-rendering:auto;color:#000000;isolation:auto;mix-blend-mode:normal;shape-rendering:auto;solid-color:#000000;image-rendering:auto" height="15.103" width="14.919" y="482" x="-213.04"/>
   <rect id="rect3522-1" style="color-rendering:auto;color:#000000;isolation:auto;mix-blend-mode:normal;shape-rendering:auto;solid-color:#000000;image-rendering:auto" height="15.103" width="14.919" y="107.6" x="-213.04"/>
   <rect id="rect3522-1-1" style="color-rendering:auto;color:#000000;isolation:auto;mix-blend-mode:normal;shape-rendering:auto;solid-color:#000000;image-rendering:auto" height="15.103" width="14.919" y="-120.68" x="16.77"/>
   <rect id="rect3522-1-1-9" style="color-rendering:auto;color:#000000;isolation:auto;mix-blend-mode:normal;shape-rendering:auto;solid-color:#000000;image-rendering:auto" height="15.103" width="14.919" y="-120.68" x="390.23"/>
   <rect id="rect3522-1-1-9-8" style="color-rendering:auto;color:#000000;isolation:auto;mix-blend-mode:normal;shape-rendering:auto;solid-color:#000000;image-rendering:auto" height="15.103" width="14.919" y="107.27" x="621.04"/>
   <rect id="rect3522-1-1-9-8-1" style="color-rendering:auto;color:#000000;isolation:auto;mix-blend-mode:normal;shape-rendering:auto;solid-color:#000000;image-rendering:auto" height="15.103" width="14.919" y="481.18" x="621.04"/>
   <rect id="rect3522-1-1-9-8-1-5" style="color-rendering:auto;color:#000000;isolation:auto;mix-blend-mode:normal;shape-rendering:auto;solid-color:#000000;image-rendering:auto" height="15.103" width="14.919" y="713.16" x="391.86"/>
   <rect id="rect3522-1-1-9-8-1-5-1" style="color-rendering:auto;color:#000000;isolation:auto;mix-blend-mode:normal;shape-rendering:auto;solid-color:#000000;image-rendering:auto" height="15.103" width="14.919" y="713.34" x="18.417"/>
  </g>
 </g>
</svg>
